<svg width="24" height="23" viewBox="0 0 24 23" fill="none" xmlns="http://www.w3.org/2000/svg">
<path id="Vector" d="M12 22.02L10.26 20.46C8.24 18.64 6.57 17.07 5.25 15.75C3.93 14.43 2.88 13.245 2.1 12.195C1.32 11.145 0.775 10.18 0.465 9.3C0.155 8.42 0 7.52 0 6.6C0 4.72 0.63 3.15 1.89 1.89C3.15 0.63 4.72 0 6.6 0C7.64 0 8.63 0.22 9.57 0.66C10.51 1.1 11.32 1.72 12 2.52C12.68 1.72 13.49 1.1 14.43 0.66C15.37 0.22 16.36 0 17.4 0C19.28 0 20.85 0.63 22.11 1.89C23.37 3.15 24 4.72 24 6.6C24 7.52 23.845 8.42 23.535 9.3C23.225 10.18 22.68 11.145 21.9 12.195C21.12 13.245 20.07 14.43 18.75 15.75C17.43 17.07 15.76 18.64 13.74 20.46L12 22.02ZM12 18.78C13.92 17.06 15.5 15.585 16.74 14.355C17.98 13.125 18.96 12.055 19.68 11.145C20.4 10.235 20.9 9.425 21.18 8.715C21.46 8.005 21.6 7.3 21.6 6.6C21.6 5.4 21.2 4.4 20.4 3.6C19.6 2.8 18.6 2.4 17.4 2.4C16.46 2.4 15.59 2.665 14.79 3.195C13.99 3.725 13.44 4.4 13.14 5.22H10.86C10.56 4.4 10.01 3.725 9.21 3.195C8.41 2.665 7.54 2.4 6.6 2.4C5.4 2.4 4.4 2.8 3.6 3.6C2.8 4.4 2.4 5.4 2.4 6.6C2.4 7.3 2.54 8.005 2.82 8.715C3.1 9.425 3.6 10.235 4.32 11.145C5.04 12.055 6.02 13.125 7.26 14.355C8.5 15.585 10.08 17.06 12 18.78Z" fill="#6D6D6D"/>
</svg>
