<svg width="24" height="24" viewBox="0 0 24 24" fill="none" xmlns="http://www.w3.org/2000/svg">
<path id="Vector" d="M8.49 14.7L12 12.57L15.51 14.7L14.58 10.71L17.7 8.01L13.59 7.68L12 3.9L10.41 7.68L6.3 8.01L9.42 10.71L8.49 14.7ZM0 24V2.4C0 1.74 0.235 1.175 0.705 0.705C1.175 0.235 1.74 0 2.4 0H21.6C22.26 0 22.825 0.235 23.295 0.705C23.765 1.175 24 1.74 24 2.4V16.8C24 17.46 23.765 18.025 23.295 18.495C22.825 18.965 22.26 19.2 21.6 19.2H4.8L0 24ZM3.78 16.8H21.6V2.4H2.4V18.15L3.78 16.8Z" fill="#6D6D6D"/>
</svg>
