<svg width="71" height="62" viewBox="0 0 71 62" fill="none" xmlns="http://www.w3.org/2000/svg">
<g id="Vector" filter="url(#filter0_d_137_26)">
<path d="M4 15.4367C4 6.91126 11.2323 0 20.1538 0H50.8462C59.7677 0 67 6.91126 67 15.4367V37.82C67 46.3455 59.7677 53.2568 50.8461 53.2568H20.1538C11.2323 53.2568 4 46.3455 4 37.82V15.4367Z" fill="#FCE732"/>
<path d="M48.459 41.739L37.7167 30.393C36.8641 31.1134 35.8837 31.6837 34.7753 32.1039C33.667 32.5241 32.4876 32.7342 31.2372 32.7342C28.1395 32.7342 25.5179 31.6011 23.3723 29.3349C21.2267 27.0687 20.1538 24.2998 20.1538 21.028C20.1538 17.7563 21.2267 14.9873 23.3723 12.7211C25.5179 10.4549 28.1395 9.32185 31.2372 9.32185C34.3348 9.32185 36.9565 10.4549 39.1021 12.7211C41.2477 14.9873 42.3205 17.7563 42.3205 21.028C42.3205 22.3487 42.1216 23.5944 41.7237 24.765C41.3259 25.9356 40.7859 26.9712 40.1038 27.8717L50.8461 39.2177L48.459 41.739ZM31.2372 29.1323C33.3686 29.1323 35.1803 28.3444 36.6723 26.7686C38.1642 25.1927 38.9102 23.2792 38.9102 21.028C38.9102 18.7768 38.1642 16.8633 36.6723 15.2875C35.1803 13.7117 33.3686 12.9238 31.2372 12.9238C29.1058 12.9238 27.294 13.7117 25.8021 15.2875C24.3101 16.8633 23.5641 18.7768 23.5641 21.028C23.5641 23.2792 24.3101 25.1927 25.8021 26.7686C27.294 28.3444 29.1058 29.1323 31.2372 29.1323Z" fill="#A7A7A7"/>
</g>
<defs>
<filter id="filter0_d_137_26" x="0" y="0" width="71" height="61.2567" filterUnits="userSpaceOnUse" color-interpolation-filters="sRGB">
<feFlood flood-opacity="0" result="BackgroundImageFix"/>
<feColorMatrix in="SourceAlpha" type="matrix" values="0 0 0 0 0 0 0 0 0 0 0 0 0 0 0 0 0 0 127 0" result="hardAlpha"/>
<feOffset dy="4"/>
<feGaussianBlur stdDeviation="2"/>
<feComposite in2="hardAlpha" operator="out"/>
<feColorMatrix type="matrix" values="0 0 0 0 0 0 0 0 0 0 0 0 0 0 0 0 0 0 0.25 0"/>
<feBlend mode="normal" in2="BackgroundImageFix" result="effect1_dropShadow_137_26"/>
<feBlend mode="normal" in="SourceGraphic" in2="effect1_dropShadow_137_26" result="shape"/>
</filter>
</defs>
</svg>
